<svg width="250" height="250" viewBox="0 0 250 250" fill="none" xmlns="http://www.w3.org/2000/svg">
<rect width="250" height="250" fill="#E5E5E5"/>
<rect x="-25" y="-25" width="300" height="300" fill="#D9D9D9"/>
<rect width="250" height="250" fill="#0B1A24"/>
<g filter="url(#filter0_d_0_1)">
<path d="M202 121V125H210V121C210 119.5 208.5 117.5 206 117.5C203.5 117.5 202 119.5 202 121Z" fill="#CCDCF0"/>
<path d="M202 121V125H210V121C210 119.5 208.5 117.5 206 117.5C203.5 117.5 202 119.5 202 121Z" stroke="#CCDCF0" stroke-width="0.5"/>
</g>
<g filter="url(#filter1_d_0_1)">
<path d="M186 110.5V125.5H194V110.5C194 109 192.5 106.5 190 106.5C187.5 106.5 186 109 186 110.5Z" fill="#CCDCF0"/>
<path d="M186 110.5V125.5H194V110.5C194 109 192.5 106.5 190 106.5C187.5 106.5 186 109 186 110.5Z" stroke="#CCDCF0" stroke-width="0.5"/>
</g>
<g filter="url(#filter2_d_0_1)">
<path d="M170 94.0507V125.5H178V94.0507C178 92.4275 176.5 90.5 174 90.5C171.5 90.5 170 92.529 170 94.0507Z" fill="#CCDCF0"/>
<path d="M170 94.0507V125.5H178V94.0507C178 92.4275 176.5 90.5 174 90.5C171.5 90.5 170 92.529 170 94.0507Z" stroke="#CCDCF0" stroke-width="0.5"/>
</g>
<g filter="url(#filter3_d_0_1)">
<path d="M154 110.5V125.5H162V110.5C162 109 160.5 106.5 158 106.5C155.5 106.5 154 109 154 110.5Z" fill="#CCDCF0"/>
<path d="M154 110.5V125.5H162V110.5C162 109 160.5 106.5 158 106.5C155.5 106.5 154 109 154 110.5Z" stroke="#CCDCF0" stroke-width="0.5"/>
</g>
<g filter="url(#filter4_d_0_1)">
<path d="M87 110.5V125.5H95V110.5C95 109 93.5 106.5 91 106.5C88.5 106.5 87 109 87 110.5Z" fill="#CCDCF0"/>
<path d="M87 110.5V125.5H95V110.5C95 109 93.5 106.5 91 106.5C88.5 106.5 87 109 87 110.5Z" stroke="#CCDCF0" stroke-width="0.5"/>
</g>
<g filter="url(#filter5_d_0_1)">
<path d="M71 94.0507V125.5H79V94.0507C79 92.4275 77.5 90.5 75 90.5C72.5 90.5 71 92.529 71 94.0507Z" fill="#CCDCF0"/>
<path d="M71 94.0507V125.5H79V94.0507C79 92.4275 77.5 90.5 75 90.5C72.5 90.5 71 92.529 71 94.0507Z" stroke="#CCDCF0" stroke-width="0.5"/>
</g>
<g filter="url(#filter6_d_0_1)">
<path d="M55 110.5V125.5H63V110.5C63 109 61.5 106.5 59 106.5C56.5 106.5 55 109 55 110.5Z" fill="#CCDCF0"/>
<path d="M55 110.5V125.5H63V110.5C63 109 61.5 106.5 59 106.5C56.5 106.5 55 109 55 110.5Z" stroke="#CCDCF0" stroke-width="0.5"/>
</g>
<g filter="url(#filter7_d_0_1)">
<path d="M39 121V125H47V121C47 119.5 45.5 117.5 43 117.5C40.5 117.5 39 119.5 39 121Z" fill="#CCDCF0"/>
<path d="M39 121V125H47V121C47 119.5 45.5 117.5 43 117.5C40.5 117.5 39 119.5 39 121Z" stroke="#CCDCF0" stroke-width="0.5"/>
</g>
<g filter="url(#filter8_d_0_1)">
<path d="M202 140.5V125.5H194V140.5C194 142 195.5 144.5 198 144.5C200.5 144.5 202 142 202 140.5Z" fill="#CCDCF0"/>
<path d="M202 140.5V125.5H194V140.5C194 142 195.5 144.5 198 144.5C200.5 144.5 202 142 202 140.5Z" stroke="#CCDCF0" stroke-width="0.5"/>
</g>
<g filter="url(#filter9_d_0_1)">
<path d="M186 156.949V125.5H178V156.949C178 158.572 179.5 160.5 182 160.5C184.5 160.5 186 158.471 186 156.949Z" fill="#CCDCF0"/>
<path d="M186 156.949V125.5H178V156.949C178 158.572 179.5 160.5 182 160.5C184.5 160.5 186 158.471 186 156.949Z" stroke="#CCDCF0" stroke-width="0.5"/>
</g>
<g filter="url(#filter10_d_0_1)">
<path d="M170 140.5V125.5H162V140.5C162 142 163.5 144.5 166 144.5C168.5 144.5 170 142 170 140.5Z" fill="#CCDCF0"/>
<path d="M170 140.5V125.5H162V140.5C162 142 163.5 144.5 166 144.5C168.5 144.5 170 142 170 140.5Z" stroke="#CCDCF0" stroke-width="0.5"/>
</g>
<g filter="url(#filter11_d_0_1)">
<path d="M87 156.949V125.5H79V156.949C79 158.572 80.5 160.5 83 160.5C85.5 160.5 87 158.471 87 156.949Z" fill="#CCDCF0"/>
<path d="M87 156.949V125.5H79V156.949C79 158.572 80.5 160.5 83 160.5C85.5 160.5 87 158.471 87 156.949Z" stroke="#CCDCF0" stroke-width="0.5"/>
</g>
<g filter="url(#filter12_d_0_1)">
<path d="M71 140.5V125.5H63V140.5C63 142 64.5 144.5 67 144.5C69.5 144.5 71 142 71 140.5Z" fill="#CCDCF0"/>
<path d="M71 140.5V125.5H63V140.5C63 142 64.5 144.5 67 144.5C69.5 144.5 71 142 71 140.5Z" stroke="#CCDCF0" stroke-width="0.5"/>
</g>
<g filter="url(#filter13_d_0_1)">
<path d="M55 129.5V125.5H47V129.5C47 131 48.5 133 51 133C53.5 133 55 131 55 129.5Z" fill="#CCDCF0"/>
<path d="M55 129.5V125.5H47V129.5C47 131 48.5 133 51 133C53.5 133 55 131 55 129.5Z" stroke="#CCDCF0" stroke-width="0.5"/>
</g>
<line x1="35" y1="125.5" x2="215" y2="125.5" stroke="#CCDCF0"/>
<g filter="url(#filter14_d_0_1)">
<path d="M75.1994 103.955C75.1994 98.8701 76.1707 94.0993 78.1133 89.6428C80.0559 85.1863 82.6841 81.3011 85.9979 77.9873C89.3688 74.6164 93.2826 71.9596 97.7391 70.017C102.196 68.0744 106.966 67.1031 112.051 67.1031H168.443V91.6997H112.051C110.337 91.6997 108.738 92.0139 107.252 92.6424C105.766 93.2709 104.452 94.1565 103.31 95.2991C102.224 96.3847 101.367 97.6702 100.739 99.1557C100.11 100.641 99.7959 102.241 99.7959 103.955C99.7959 105.669 100.11 107.297 100.739 108.84C101.367 110.326 102.224 111.64 103.31 112.782C104.452 113.868 105.766 114.725 107.252 115.353C108.738 115.982 110.337 116.296 112.051 116.296H136.648C141.733 116.296 146.504 117.267 150.96 119.21C155.474 121.095 159.387 123.724 162.701 127.095C166.072 130.408 168.7 134.322 170.586 138.836C172.528 143.292 173.5 148.063 173.5 153.148C173.5 158.233 172.528 163.004 170.586 167.46C168.7 171.917 166.072 175.831 162.701 179.202C159.387 182.515 155.474 185.144 150.96 187.086C146.504 189.029 141.733 190 136.648 190H82.0556V165.403H136.648C138.362 165.403 139.962 165.089 141.447 164.461C142.933 163.832 144.218 162.975 145.304 161.89C146.446 160.747 147.332 159.433 147.961 157.947C148.589 156.462 148.903 154.862 148.903 153.148C148.903 151.434 148.589 149.834 147.961 148.349C147.332 146.863 146.446 145.578 145.304 144.492C144.218 143.349 142.933 142.464 141.447 141.835C139.962 141.207 138.362 140.893 136.648 140.893H112.051C106.966 140.893 102.196 139.921 97.7391 137.979C93.2826 136.036 89.3688 133.408 85.9979 130.094C82.6841 126.723 80.0559 122.81 78.1133 118.353C76.1707 113.839 75.1994 109.04 75.1994 103.955Z" fill="#F0FEFF"/>
</g>
<defs>
<filter id="filter0_d_0_1" x="195.75" y="113.25" width="20.5" height="20" filterUnits="userSpaceOnUse" color-interpolation-filters="sRGB">
<feFlood flood-opacity="0" result="BackgroundImageFix"/>
<feColorMatrix in="SourceAlpha" type="matrix" values="0 0 0 0 0 0 0 0 0 0 0 0 0 0 0 0 0 0 127 0" result="hardAlpha"/>
<feOffset dy="2"/>
<feGaussianBlur stdDeviation="3"/>
<feComposite in2="hardAlpha" operator="out"/>
<feColorMatrix type="matrix" values="0 0 0 0 0.0833333 0 0 0 0 0.0833333 0 0 0 0 0.0833333 0 0 0 0.9 0"/>
<feBlend mode="normal" in2="BackgroundImageFix" result="effect1_dropShadow_0_1"/>
<feBlend mode="normal" in="SourceGraphic" in2="effect1_dropShadow_0_1" result="shape"/>
</filter>
<filter id="filter1_d_0_1" x="179.75" y="102.25" width="20.5" height="31.5" filterUnits="userSpaceOnUse" color-interpolation-filters="sRGB">
<feFlood flood-opacity="0" result="BackgroundImageFix"/>
<feColorMatrix in="SourceAlpha" type="matrix" values="0 0 0 0 0 0 0 0 0 0 0 0 0 0 0 0 0 0 127 0" result="hardAlpha"/>
<feOffset dy="2"/>
<feGaussianBlur stdDeviation="3"/>
<feComposite in2="hardAlpha" operator="out"/>
<feColorMatrix type="matrix" values="0 0 0 0 0.0833333 0 0 0 0 0.0833333 0 0 0 0 0.0833333 0 0 0 0.9 0"/>
<feBlend mode="normal" in2="BackgroundImageFix" result="effect1_dropShadow_0_1"/>
<feBlend mode="normal" in="SourceGraphic" in2="effect1_dropShadow_0_1" result="shape"/>
</filter>
<filter id="filter2_d_0_1" x="163.75" y="86.25" width="20.5" height="47.5" filterUnits="userSpaceOnUse" color-interpolation-filters="sRGB">
<feFlood flood-opacity="0" result="BackgroundImageFix"/>
<feColorMatrix in="SourceAlpha" type="matrix" values="0 0 0 0 0 0 0 0 0 0 0 0 0 0 0 0 0 0 127 0" result="hardAlpha"/>
<feOffset dy="2"/>
<feGaussianBlur stdDeviation="3"/>
<feComposite in2="hardAlpha" operator="out"/>
<feColorMatrix type="matrix" values="0 0 0 0 0.0833333 0 0 0 0 0.0833333 0 0 0 0 0.0833333 0 0 0 0.9 0"/>
<feBlend mode="normal" in2="BackgroundImageFix" result="effect1_dropShadow_0_1"/>
<feBlend mode="normal" in="SourceGraphic" in2="effect1_dropShadow_0_1" result="shape"/>
</filter>
<filter id="filter3_d_0_1" x="147.75" y="102.25" width="20.5" height="31.5" filterUnits="userSpaceOnUse" color-interpolation-filters="sRGB">
<feFlood flood-opacity="0" result="BackgroundImageFix"/>
<feColorMatrix in="SourceAlpha" type="matrix" values="0 0 0 0 0 0 0 0 0 0 0 0 0 0 0 0 0 0 127 0" result="hardAlpha"/>
<feOffset dy="2"/>
<feGaussianBlur stdDeviation="3"/>
<feComposite in2="hardAlpha" operator="out"/>
<feColorMatrix type="matrix" values="0 0 0 0 0.0833333 0 0 0 0 0.0833333 0 0 0 0 0.0833333 0 0 0 0.9 0"/>
<feBlend mode="normal" in2="BackgroundImageFix" result="effect1_dropShadow_0_1"/>
<feBlend mode="normal" in="SourceGraphic" in2="effect1_dropShadow_0_1" result="shape"/>
</filter>
<filter id="filter4_d_0_1" x="80.75" y="102.25" width="20.5" height="31.5" filterUnits="userSpaceOnUse" color-interpolation-filters="sRGB">
<feFlood flood-opacity="0" result="BackgroundImageFix"/>
<feColorMatrix in="SourceAlpha" type="matrix" values="0 0 0 0 0 0 0 0 0 0 0 0 0 0 0 0 0 0 127 0" result="hardAlpha"/>
<feOffset dy="2"/>
<feGaussianBlur stdDeviation="3"/>
<feComposite in2="hardAlpha" operator="out"/>
<feColorMatrix type="matrix" values="0 0 0 0 0.0833333 0 0 0 0 0.0833333 0 0 0 0 0.0833333 0 0 0 0.9 0"/>
<feBlend mode="normal" in2="BackgroundImageFix" result="effect1_dropShadow_0_1"/>
<feBlend mode="normal" in="SourceGraphic" in2="effect1_dropShadow_0_1" result="shape"/>
</filter>
<filter id="filter5_d_0_1" x="64.75" y="86.25" width="20.5" height="47.5" filterUnits="userSpaceOnUse" color-interpolation-filters="sRGB">
<feFlood flood-opacity="0" result="BackgroundImageFix"/>
<feColorMatrix in="SourceAlpha" type="matrix" values="0 0 0 0 0 0 0 0 0 0 0 0 0 0 0 0 0 0 127 0" result="hardAlpha"/>
<feOffset dy="2"/>
<feGaussianBlur stdDeviation="3"/>
<feComposite in2="hardAlpha" operator="out"/>
<feColorMatrix type="matrix" values="0 0 0 0 0.0833333 0 0 0 0 0.0833333 0 0 0 0 0.0833333 0 0 0 0.9 0"/>
<feBlend mode="normal" in2="BackgroundImageFix" result="effect1_dropShadow_0_1"/>
<feBlend mode="normal" in="SourceGraphic" in2="effect1_dropShadow_0_1" result="shape"/>
</filter>
<filter id="filter6_d_0_1" x="48.75" y="102.25" width="20.5" height="31.5" filterUnits="userSpaceOnUse" color-interpolation-filters="sRGB">
<feFlood flood-opacity="0" result="BackgroundImageFix"/>
<feColorMatrix in="SourceAlpha" type="matrix" values="0 0 0 0 0 0 0 0 0 0 0 0 0 0 0 0 0 0 127 0" result="hardAlpha"/>
<feOffset dy="2"/>
<feGaussianBlur stdDeviation="3"/>
<feComposite in2="hardAlpha" operator="out"/>
<feColorMatrix type="matrix" values="0 0 0 0 0.0833333 0 0 0 0 0.0833333 0 0 0 0 0.0833333 0 0 0 0.9 0"/>
<feBlend mode="normal" in2="BackgroundImageFix" result="effect1_dropShadow_0_1"/>
<feBlend mode="normal" in="SourceGraphic" in2="effect1_dropShadow_0_1" result="shape"/>
</filter>
<filter id="filter7_d_0_1" x="32.75" y="113.25" width="20.5" height="20" filterUnits="userSpaceOnUse" color-interpolation-filters="sRGB">
<feFlood flood-opacity="0" result="BackgroundImageFix"/>
<feColorMatrix in="SourceAlpha" type="matrix" values="0 0 0 0 0 0 0 0 0 0 0 0 0 0 0 0 0 0 127 0" result="hardAlpha"/>
<feOffset dy="2"/>
<feGaussianBlur stdDeviation="3"/>
<feComposite in2="hardAlpha" operator="out"/>
<feColorMatrix type="matrix" values="0 0 0 0 0.0833333 0 0 0 0 0.0833333 0 0 0 0 0.0833333 0 0 0 0.9 0"/>
<feBlend mode="normal" in2="BackgroundImageFix" result="effect1_dropShadow_0_1"/>
<feBlend mode="normal" in="SourceGraphic" in2="effect1_dropShadow_0_1" result="shape"/>
</filter>
<filter id="filter8_d_0_1" x="187.75" y="117.25" width="20.5" height="31.5" filterUnits="userSpaceOnUse" color-interpolation-filters="sRGB">
<feFlood flood-opacity="0" result="BackgroundImageFix"/>
<feColorMatrix in="SourceAlpha" type="matrix" values="0 0 0 0 0 0 0 0 0 0 0 0 0 0 0 0 0 0 127 0" result="hardAlpha"/>
<feOffset dy="-2"/>
<feGaussianBlur stdDeviation="3"/>
<feComposite in2="hardAlpha" operator="out"/>
<feColorMatrix type="matrix" values="0 0 0 0 0.0833333 0 0 0 0 0.0833333 0 0 0 0 0.0833333 0 0 0 0.9 0"/>
<feBlend mode="normal" in2="BackgroundImageFix" result="effect1_dropShadow_0_1"/>
<feBlend mode="normal" in="SourceGraphic" in2="effect1_dropShadow_0_1" result="shape"/>
</filter>
<filter id="filter9_d_0_1" x="171.75" y="117.25" width="20.5" height="47.5" filterUnits="userSpaceOnUse" color-interpolation-filters="sRGB">
<feFlood flood-opacity="0" result="BackgroundImageFix"/>
<feColorMatrix in="SourceAlpha" type="matrix" values="0 0 0 0 0 0 0 0 0 0 0 0 0 0 0 0 0 0 127 0" result="hardAlpha"/>
<feOffset dy="-2"/>
<feGaussianBlur stdDeviation="3"/>
<feComposite in2="hardAlpha" operator="out"/>
<feColorMatrix type="matrix" values="0 0 0 0 0.0833333 0 0 0 0 0.0833333 0 0 0 0 0.0833333 0 0 0 0.9 0"/>
<feBlend mode="normal" in2="BackgroundImageFix" result="effect1_dropShadow_0_1"/>
<feBlend mode="normal" in="SourceGraphic" in2="effect1_dropShadow_0_1" result="shape"/>
</filter>
<filter id="filter10_d_0_1" x="155.75" y="117.25" width="20.5" height="31.5" filterUnits="userSpaceOnUse" color-interpolation-filters="sRGB">
<feFlood flood-opacity="0" result="BackgroundImageFix"/>
<feColorMatrix in="SourceAlpha" type="matrix" values="0 0 0 0 0 0 0 0 0 0 0 0 0 0 0 0 0 0 127 0" result="hardAlpha"/>
<feOffset dy="-2"/>
<feGaussianBlur stdDeviation="3"/>
<feComposite in2="hardAlpha" operator="out"/>
<feColorMatrix type="matrix" values="0 0 0 0 0.0833333 0 0 0 0 0.0833333 0 0 0 0 0.0833333 0 0 0 0.9 0"/>
<feBlend mode="normal" in2="BackgroundImageFix" result="effect1_dropShadow_0_1"/>
<feBlend mode="normal" in="SourceGraphic" in2="effect1_dropShadow_0_1" result="shape"/>
</filter>
<filter id="filter11_d_0_1" x="72.75" y="117.25" width="20.5" height="47.5" filterUnits="userSpaceOnUse" color-interpolation-filters="sRGB">
<feFlood flood-opacity="0" result="BackgroundImageFix"/>
<feColorMatrix in="SourceAlpha" type="matrix" values="0 0 0 0 0 0 0 0 0 0 0 0 0 0 0 0 0 0 127 0" result="hardAlpha"/>
<feOffset dy="-2"/>
<feGaussianBlur stdDeviation="3"/>
<feComposite in2="hardAlpha" operator="out"/>
<feColorMatrix type="matrix" values="0 0 0 0 0.0833333 0 0 0 0 0.0833333 0 0 0 0 0.0833333 0 0 0 0.9 0"/>
<feBlend mode="normal" in2="BackgroundImageFix" result="effect1_dropShadow_0_1"/>
<feBlend mode="normal" in="SourceGraphic" in2="effect1_dropShadow_0_1" result="shape"/>
</filter>
<filter id="filter12_d_0_1" x="56.75" y="117.25" width="20.5" height="31.5" filterUnits="userSpaceOnUse" color-interpolation-filters="sRGB">
<feFlood flood-opacity="0" result="BackgroundImageFix"/>
<feColorMatrix in="SourceAlpha" type="matrix" values="0 0 0 0 0 0 0 0 0 0 0 0 0 0 0 0 0 0 127 0" result="hardAlpha"/>
<feOffset dy="-2"/>
<feGaussianBlur stdDeviation="3"/>
<feComposite in2="hardAlpha" operator="out"/>
<feColorMatrix type="matrix" values="0 0 0 0 0.0833333 0 0 0 0 0.0833333 0 0 0 0 0.0833333 0 0 0 0.9 0"/>
<feBlend mode="normal" in2="BackgroundImageFix" result="effect1_dropShadow_0_1"/>
<feBlend mode="normal" in="SourceGraphic" in2="effect1_dropShadow_0_1" result="shape"/>
</filter>
<filter id="filter13_d_0_1" x="40.75" y="117.25" width="20.5" height="20" filterUnits="userSpaceOnUse" color-interpolation-filters="sRGB">
<feFlood flood-opacity="0" result="BackgroundImageFix"/>
<feColorMatrix in="SourceAlpha" type="matrix" values="0 0 0 0 0 0 0 0 0 0 0 0 0 0 0 0 0 0 127 0" result="hardAlpha"/>
<feOffset dy="-2"/>
<feGaussianBlur stdDeviation="3"/>
<feComposite in2="hardAlpha" operator="out"/>
<feColorMatrix type="matrix" values="0 0 0 0 0.0833333 0 0 0 0 0.0833333 0 0 0 0 0.0833333 0 0 0 0.9 0"/>
<feBlend mode="normal" in2="BackgroundImageFix" result="effect1_dropShadow_0_1"/>
<feBlend mode="normal" in="SourceGraphic" in2="effect1_dropShadow_0_1" result="shape"/>
</filter>
<filter id="filter14_d_0_1" x="35.1994" y="29.1031" width="178.3" height="202.897" filterUnits="userSpaceOnUse" color-interpolation-filters="sRGB">
<feFlood flood-opacity="0" result="BackgroundImageFix"/>
<feColorMatrix in="SourceAlpha" type="matrix" values="0 0 0 0 0 0 0 0 0 0 0 0 0 0 0 0 0 0 127 0" result="hardAlpha"/>
<feOffset dy="2"/>
<feGaussianBlur stdDeviation="20"/>
<feComposite in2="hardAlpha" operator="out"/>
<feColorMatrix type="matrix" values="0 0 0 0 0 0 0 0 0 0 0 0 0 0 0 0 0 0 0.7 0"/>
<feBlend mode="normal" in2="BackgroundImageFix" result="effect1_dropShadow_0_1"/>
<feBlend mode="normal" in="SourceGraphic" in2="effect1_dropShadow_0_1" result="shape"/>
</filter>
</defs>
</svg>
