<svg width="250" height="250" viewBox="0 0 250 250" fill="none" xmlns="http://www.w3.org/2000/svg">
<g filter="url(#filter0_d_112_22)">
<path d="M202 120V124H210V120C210 118.5 208.5 116.5 206 116.5C203.5 116.5 202 118.5 202 120Z" fill="#CCDCF0"/>
<path d="M202 120V124H210V120C210 118.5 208.5 116.5 206 116.5C203.5 116.5 202 118.5 202 120Z" stroke="#CCDCF0" stroke-width="0.5"/>
</g>
<g filter="url(#filter1_d_112_22)">
<path d="M186 109.5V124.5H194V109.5C194 108 192.5 105.5 190 105.5C187.5 105.5 186 108 186 109.5Z" fill="#CCDCF0"/>
<path d="M186 109.5V124.5H194V109.5C194 108 192.5 105.5 190 105.5C187.5 105.5 186 108 186 109.5Z" stroke="#CCDCF0" stroke-width="0.5"/>
</g>
<g filter="url(#filter2_d_112_22)">
<path d="M170 93.0507V124.5H178V93.0507C178 91.4275 176.5 89.5 174 89.5C171.5 89.5 170 91.529 170 93.0507Z" fill="#CCDCF0"/>
<path d="M170 93.0507V124.5H178V93.0507C178 91.4275 176.5 89.5 174 89.5C171.5 89.5 170 91.529 170 93.0507Z" stroke="#CCDCF0" stroke-width="0.5"/>
</g>
<g filter="url(#filter3_d_112_22)">
<path d="M154 109.5V124.5H162V109.5C162 108 160.5 105.5 158 105.5C155.5 105.5 154 108 154 109.5Z" fill="#CCDCF0"/>
<path d="M154 109.5V124.5H162V109.5C162 108 160.5 105.5 158 105.5C155.5 105.5 154 108 154 109.5Z" stroke="#CCDCF0" stroke-width="0.5"/>
</g>
<g filter="url(#filter4_d_112_22)">
<path d="M87 109.5V124.5H95V109.5C95 108 93.5 105.5 91 105.5C88.5 105.5 87 108 87 109.5Z" fill="#CCDCF0"/>
<path d="M87 109.5V124.5H95V109.5C95 108 93.5 105.5 91 105.5C88.5 105.5 87 108 87 109.5Z" stroke="#CCDCF0" stroke-width="0.5"/>
</g>
<g filter="url(#filter5_d_112_22)">
<path d="M71 93.0507V124.5H79V93.0507C79 91.4275 77.5 89.5 75 89.5C72.5 89.5 71 91.529 71 93.0507Z" fill="#CCDCF0"/>
<path d="M71 93.0507V124.5H79V93.0507C79 91.4275 77.5 89.5 75 89.5C72.5 89.5 71 91.529 71 93.0507Z" stroke="#CCDCF0" stroke-width="0.5"/>
</g>
<g filter="url(#filter6_d_112_22)">
<path d="M55 109.5V124.5H63V109.5C63 108 61.5 105.5 59 105.5C56.5 105.5 55 108 55 109.5Z" fill="#CCDCF0"/>
<path d="M55 109.5V124.5H63V109.5C63 108 61.5 105.5 59 105.5C56.5 105.5 55 108 55 109.5Z" stroke="#CCDCF0" stroke-width="0.5"/>
</g>
<g filter="url(#filter7_d_112_22)">
<path d="M39 120V124H47V120C47 118.5 45.5 116.5 43 116.5C40.5 116.5 39 118.5 39 120Z" fill="#CCDCF0"/>
<path d="M39 120V124H47V120C47 118.5 45.5 116.5 43 116.5C40.5 116.5 39 118.5 39 120Z" stroke="#CCDCF0" stroke-width="0.5"/>
</g>
<g filter="url(#filter8_d_112_22)">
<path d="M202 139.5V124.5H194V139.5C194 141 195.5 143.5 198 143.5C200.5 143.5 202 141 202 139.5Z" fill="#CCDCF0"/>
<path d="M202 139.5V124.5H194V139.5C194 141 195.5 143.5 198 143.5C200.5 143.5 202 141 202 139.5Z" stroke="#CCDCF0" stroke-width="0.5"/>
</g>
<g filter="url(#filter9_d_112_22)">
<path d="M186 155.949V124.5H178V155.949C178 157.572 179.5 159.5 182 159.5C184.5 159.5 186 157.471 186 155.949Z" fill="#CCDCF0"/>
<path d="M186 155.949V124.5H178V155.949C178 157.572 179.5 159.5 182 159.5C184.5 159.5 186 157.471 186 155.949Z" stroke="#CCDCF0" stroke-width="0.5"/>
</g>
<g filter="url(#filter10_d_112_22)">
<path d="M170 139.5V124.5H162V139.5C162 141 163.5 143.5 166 143.5C168.5 143.5 170 141 170 139.5Z" fill="#CCDCF0"/>
<path d="M170 139.5V124.5H162V139.5C162 141 163.5 143.5 166 143.5C168.5 143.5 170 141 170 139.5Z" stroke="#CCDCF0" stroke-width="0.5"/>
</g>
<g filter="url(#filter11_d_112_22)">
<path d="M87 155.949V124.5H79V155.949C79 157.572 80.5 159.5 83 159.5C85.5 159.5 87 157.471 87 155.949Z" fill="#CCDCF0"/>
<path d="M87 155.949V124.5H79V155.949C79 157.572 80.5 159.5 83 159.5C85.5 159.5 87 157.471 87 155.949Z" stroke="#CCDCF0" stroke-width="0.5"/>
</g>
<g filter="url(#filter12_d_112_22)">
<path d="M71 139.5V124.5H63V139.5C63 141 64.5 143.5 67 143.5C69.5 143.5 71 141 71 139.5Z" fill="#CCDCF0"/>
<path d="M71 139.5V124.5H63V139.5C63 141 64.5 143.5 67 143.5C69.5 143.5 71 141 71 139.5Z" stroke="#CCDCF0" stroke-width="0.5"/>
</g>
<g filter="url(#filter13_d_112_22)">
<path d="M55 128.5V124.5H47V128.5C47 130 48.5 132 51 132C53.5 132 55 130 55 128.5Z" fill="#CCDCF0"/>
<path d="M55 128.5V124.5H47V128.5C47 130 48.5 132 51 132C53.5 132 55 130 55 128.5Z" stroke="#CCDCF0" stroke-width="0.5"/>
</g>
<line x1="35" y1="124.5" x2="215" y2="124.5" stroke="#CCDCF0"/>
<g filter="url(#filter14_d_112_22)">
<path d="M75.1994 102.955C75.1994 97.8701 76.1707 93.0993 78.1133 88.6428C80.0559 84.1863 82.6841 80.3011 85.9979 76.9873C89.3688 73.6164 93.2826 70.9596 97.7391 69.017C102.196 67.0744 106.966 66.1031 112.051 66.1031H168.443V90.6997H112.051C110.337 90.6997 108.738 91.0139 107.252 91.6424C105.766 92.2709 104.452 93.1565 103.31 94.2991C102.224 95.3847 101.367 96.6702 100.739 98.1557C100.11 99.6412 99.7959 101.241 99.7959 102.955C99.7959 104.669 100.11 106.297 100.739 107.84C101.367 109.326 102.224 110.64 103.31 111.782C104.452 112.868 105.766 113.725 107.252 114.353C108.738 114.982 110.337 115.296 112.051 115.296H136.648C141.733 115.296 146.504 116.267 150.96 118.21C155.474 120.095 159.387 122.724 162.701 126.095C166.072 129.408 168.7 133.322 170.586 137.836C172.528 142.292 173.5 147.063 173.5 152.148C173.5 157.233 172.528 162.004 170.586 166.46C168.7 170.917 166.072 174.831 162.701 178.202C159.387 181.515 155.474 184.144 150.96 186.086C146.504 188.029 141.733 189 136.648 189H82.0556V164.403H136.648C138.362 164.403 139.962 164.089 141.447 163.461C142.933 162.832 144.218 161.975 145.304 160.89C146.446 159.747 147.332 158.433 147.961 156.947C148.589 155.462 148.903 153.862 148.903 152.148C148.903 150.434 148.589 148.834 147.961 147.349C147.332 145.863 146.446 144.578 145.304 143.492C144.218 142.349 142.933 141.464 141.447 140.835C139.962 140.207 138.362 139.893 136.648 139.893H112.051C106.966 139.893 102.196 138.921 97.7391 136.979C93.2826 135.036 89.3688 132.408 85.9979 129.094C82.6841 125.723 80.0559 121.81 78.1133 117.353C76.1707 112.839 75.1994 108.04 75.1994 102.955Z" fill="#F0FEFF"/>
</g>
<defs>
<filter id="filter0_d_112_22" x="195.75" y="112.25" width="20.5" height="20" filterUnits="userSpaceOnUse" color-interpolation-filters="sRGB">
<feFlood flood-opacity="0" result="BackgroundImageFix"/>
<feColorMatrix in="SourceAlpha" type="matrix" values="0 0 0 0 0 0 0 0 0 0 0 0 0 0 0 0 0 0 127 0" result="hardAlpha"/>
<feOffset dy="2"/>
<feGaussianBlur stdDeviation="3"/>
<feComposite in2="hardAlpha" operator="out"/>
<feColorMatrix type="matrix" values="0 0 0 0 0.0833333 0 0 0 0 0.0833333 0 0 0 0 0.0833333 0 0 0 0.9 0"/>
<feBlend mode="normal" in2="BackgroundImageFix" result="effect1_dropShadow_112_22"/>
<feBlend mode="normal" in="SourceGraphic" in2="effect1_dropShadow_112_22" result="shape"/>
</filter>
<filter id="filter1_d_112_22" x="179.75" y="101.25" width="20.5" height="31.5" filterUnits="userSpaceOnUse" color-interpolation-filters="sRGB">
<feFlood flood-opacity="0" result="BackgroundImageFix"/>
<feColorMatrix in="SourceAlpha" type="matrix" values="0 0 0 0 0 0 0 0 0 0 0 0 0 0 0 0 0 0 127 0" result="hardAlpha"/>
<feOffset dy="2"/>
<feGaussianBlur stdDeviation="3"/>
<feComposite in2="hardAlpha" operator="out"/>
<feColorMatrix type="matrix" values="0 0 0 0 0.0833333 0 0 0 0 0.0833333 0 0 0 0 0.0833333 0 0 0 0.9 0"/>
<feBlend mode="normal" in2="BackgroundImageFix" result="effect1_dropShadow_112_22"/>
<feBlend mode="normal" in="SourceGraphic" in2="effect1_dropShadow_112_22" result="shape"/>
</filter>
<filter id="filter2_d_112_22" x="163.75" y="85.25" width="20.5" height="47.5" filterUnits="userSpaceOnUse" color-interpolation-filters="sRGB">
<feFlood flood-opacity="0" result="BackgroundImageFix"/>
<feColorMatrix in="SourceAlpha" type="matrix" values="0 0 0 0 0 0 0 0 0 0 0 0 0 0 0 0 0 0 127 0" result="hardAlpha"/>
<feOffset dy="2"/>
<feGaussianBlur stdDeviation="3"/>
<feComposite in2="hardAlpha" operator="out"/>
<feColorMatrix type="matrix" values="0 0 0 0 0.0833333 0 0 0 0 0.0833333 0 0 0 0 0.0833333 0 0 0 0.9 0"/>
<feBlend mode="normal" in2="BackgroundImageFix" result="effect1_dropShadow_112_22"/>
<feBlend mode="normal" in="SourceGraphic" in2="effect1_dropShadow_112_22" result="shape"/>
</filter>
<filter id="filter3_d_112_22" x="147.75" y="101.25" width="20.5" height="31.5" filterUnits="userSpaceOnUse" color-interpolation-filters="sRGB">
<feFlood flood-opacity="0" result="BackgroundImageFix"/>
<feColorMatrix in="SourceAlpha" type="matrix" values="0 0 0 0 0 0 0 0 0 0 0 0 0 0 0 0 0 0 127 0" result="hardAlpha"/>
<feOffset dy="2"/>
<feGaussianBlur stdDeviation="3"/>
<feComposite in2="hardAlpha" operator="out"/>
<feColorMatrix type="matrix" values="0 0 0 0 0.0833333 0 0 0 0 0.0833333 0 0 0 0 0.0833333 0 0 0 0.9 0"/>
<feBlend mode="normal" in2="BackgroundImageFix" result="effect1_dropShadow_112_22"/>
<feBlend mode="normal" in="SourceGraphic" in2="effect1_dropShadow_112_22" result="shape"/>
</filter>
<filter id="filter4_d_112_22" x="80.75" y="101.25" width="20.5" height="31.5" filterUnits="userSpaceOnUse" color-interpolation-filters="sRGB">
<feFlood flood-opacity="0" result="BackgroundImageFix"/>
<feColorMatrix in="SourceAlpha" type="matrix" values="0 0 0 0 0 0 0 0 0 0 0 0 0 0 0 0 0 0 127 0" result="hardAlpha"/>
<feOffset dy="2"/>
<feGaussianBlur stdDeviation="3"/>
<feComposite in2="hardAlpha" operator="out"/>
<feColorMatrix type="matrix" values="0 0 0 0 0.0833333 0 0 0 0 0.0833333 0 0 0 0 0.0833333 0 0 0 0.9 0"/>
<feBlend mode="normal" in2="BackgroundImageFix" result="effect1_dropShadow_112_22"/>
<feBlend mode="normal" in="SourceGraphic" in2="effect1_dropShadow_112_22" result="shape"/>
</filter>
<filter id="filter5_d_112_22" x="64.75" y="85.25" width="20.5" height="47.5" filterUnits="userSpaceOnUse" color-interpolation-filters="sRGB">
<feFlood flood-opacity="0" result="BackgroundImageFix"/>
<feColorMatrix in="SourceAlpha" type="matrix" values="0 0 0 0 0 0 0 0 0 0 0 0 0 0 0 0 0 0 127 0" result="hardAlpha"/>
<feOffset dy="2"/>
<feGaussianBlur stdDeviation="3"/>
<feComposite in2="hardAlpha" operator="out"/>
<feColorMatrix type="matrix" values="0 0 0 0 0.0833333 0 0 0 0 0.0833333 0 0 0 0 0.0833333 0 0 0 0.9 0"/>
<feBlend mode="normal" in2="BackgroundImageFix" result="effect1_dropShadow_112_22"/>
<feBlend mode="normal" in="SourceGraphic" in2="effect1_dropShadow_112_22" result="shape"/>
</filter>
<filter id="filter6_d_112_22" x="48.75" y="101.25" width="20.5" height="31.5" filterUnits="userSpaceOnUse" color-interpolation-filters="sRGB">
<feFlood flood-opacity="0" result="BackgroundImageFix"/>
<feColorMatrix in="SourceAlpha" type="matrix" values="0 0 0 0 0 0 0 0 0 0 0 0 0 0 0 0 0 0 127 0" result="hardAlpha"/>
<feOffset dy="2"/>
<feGaussianBlur stdDeviation="3"/>
<feComposite in2="hardAlpha" operator="out"/>
<feColorMatrix type="matrix" values="0 0 0 0 0.0833333 0 0 0 0 0.0833333 0 0 0 0 0.0833333 0 0 0 0.9 0"/>
<feBlend mode="normal" in2="BackgroundImageFix" result="effect1_dropShadow_112_22"/>
<feBlend mode="normal" in="SourceGraphic" in2="effect1_dropShadow_112_22" result="shape"/>
</filter>
<filter id="filter7_d_112_22" x="32.75" y="112.25" width="20.5" height="20" filterUnits="userSpaceOnUse" color-interpolation-filters="sRGB">
<feFlood flood-opacity="0" result="BackgroundImageFix"/>
<feColorMatrix in="SourceAlpha" type="matrix" values="0 0 0 0 0 0 0 0 0 0 0 0 0 0 0 0 0 0 127 0" result="hardAlpha"/>
<feOffset dy="2"/>
<feGaussianBlur stdDeviation="3"/>
<feComposite in2="hardAlpha" operator="out"/>
<feColorMatrix type="matrix" values="0 0 0 0 0.0833333 0 0 0 0 0.0833333 0 0 0 0 0.0833333 0 0 0 0.9 0"/>
<feBlend mode="normal" in2="BackgroundImageFix" result="effect1_dropShadow_112_22"/>
<feBlend mode="normal" in="SourceGraphic" in2="effect1_dropShadow_112_22" result="shape"/>
</filter>
<filter id="filter8_d_112_22" x="187.75" y="116.25" width="20.5" height="31.5" filterUnits="userSpaceOnUse" color-interpolation-filters="sRGB">
<feFlood flood-opacity="0" result="BackgroundImageFix"/>
<feColorMatrix in="SourceAlpha" type="matrix" values="0 0 0 0 0 0 0 0 0 0 0 0 0 0 0 0 0 0 127 0" result="hardAlpha"/>
<feOffset dy="-2"/>
<feGaussianBlur stdDeviation="3"/>
<feComposite in2="hardAlpha" operator="out"/>
<feColorMatrix type="matrix" values="0 0 0 0 0.0833333 0 0 0 0 0.0833333 0 0 0 0 0.0833333 0 0 0 0.9 0"/>
<feBlend mode="normal" in2="BackgroundImageFix" result="effect1_dropShadow_112_22"/>
<feBlend mode="normal" in="SourceGraphic" in2="effect1_dropShadow_112_22" result="shape"/>
</filter>
<filter id="filter9_d_112_22" x="171.75" y="116.25" width="20.5" height="47.5" filterUnits="userSpaceOnUse" color-interpolation-filters="sRGB">
<feFlood flood-opacity="0" result="BackgroundImageFix"/>
<feColorMatrix in="SourceAlpha" type="matrix" values="0 0 0 0 0 0 0 0 0 0 0 0 0 0 0 0 0 0 127 0" result="hardAlpha"/>
<feOffset dy="-2"/>
<feGaussianBlur stdDeviation="3"/>
<feComposite in2="hardAlpha" operator="out"/>
<feColorMatrix type="matrix" values="0 0 0 0 0.0833333 0 0 0 0 0.0833333 0 0 0 0 0.0833333 0 0 0 0.9 0"/>
<feBlend mode="normal" in2="BackgroundImageFix" result="effect1_dropShadow_112_22"/>
<feBlend mode="normal" in="SourceGraphic" in2="effect1_dropShadow_112_22" result="shape"/>
</filter>
<filter id="filter10_d_112_22" x="155.75" y="116.25" width="20.5" height="31.5" filterUnits="userSpaceOnUse" color-interpolation-filters="sRGB">
<feFlood flood-opacity="0" result="BackgroundImageFix"/>
<feColorMatrix in="SourceAlpha" type="matrix" values="0 0 0 0 0 0 0 0 0 0 0 0 0 0 0 0 0 0 127 0" result="hardAlpha"/>
<feOffset dy="-2"/>
<feGaussianBlur stdDeviation="3"/>
<feComposite in2="hardAlpha" operator="out"/>
<feColorMatrix type="matrix" values="0 0 0 0 0.0833333 0 0 0 0 0.0833333 0 0 0 0 0.0833333 0 0 0 0.9 0"/>
<feBlend mode="normal" in2="BackgroundImageFix" result="effect1_dropShadow_112_22"/>
<feBlend mode="normal" in="SourceGraphic" in2="effect1_dropShadow_112_22" result="shape"/>
</filter>
<filter id="filter11_d_112_22" x="72.75" y="116.25" width="20.5" height="47.5" filterUnits="userSpaceOnUse" color-interpolation-filters="sRGB">
<feFlood flood-opacity="0" result="BackgroundImageFix"/>
<feColorMatrix in="SourceAlpha" type="matrix" values="0 0 0 0 0 0 0 0 0 0 0 0 0 0 0 0 0 0 127 0" result="hardAlpha"/>
<feOffset dy="-2"/>
<feGaussianBlur stdDeviation="3"/>
<feComposite in2="hardAlpha" operator="out"/>
<feColorMatrix type="matrix" values="0 0 0 0 0.0833333 0 0 0 0 0.0833333 0 0 0 0 0.0833333 0 0 0 0.9 0"/>
<feBlend mode="normal" in2="BackgroundImageFix" result="effect1_dropShadow_112_22"/>
<feBlend mode="normal" in="SourceGraphic" in2="effect1_dropShadow_112_22" result="shape"/>
</filter>
<filter id="filter12_d_112_22" x="56.75" y="116.25" width="20.5" height="31.5" filterUnits="userSpaceOnUse" color-interpolation-filters="sRGB">
<feFlood flood-opacity="0" result="BackgroundImageFix"/>
<feColorMatrix in="SourceAlpha" type="matrix" values="0 0 0 0 0 0 0 0 0 0 0 0 0 0 0 0 0 0 127 0" result="hardAlpha"/>
<feOffset dy="-2"/>
<feGaussianBlur stdDeviation="3"/>
<feComposite in2="hardAlpha" operator="out"/>
<feColorMatrix type="matrix" values="0 0 0 0 0.0833333 0 0 0 0 0.0833333 0 0 0 0 0.0833333 0 0 0 0.9 0"/>
<feBlend mode="normal" in2="BackgroundImageFix" result="effect1_dropShadow_112_22"/>
<feBlend mode="normal" in="SourceGraphic" in2="effect1_dropShadow_112_22" result="shape"/>
</filter>
<filter id="filter13_d_112_22" x="40.75" y="116.25" width="20.5" height="20" filterUnits="userSpaceOnUse" color-interpolation-filters="sRGB">
<feFlood flood-opacity="0" result="BackgroundImageFix"/>
<feColorMatrix in="SourceAlpha" type="matrix" values="0 0 0 0 0 0 0 0 0 0 0 0 0 0 0 0 0 0 127 0" result="hardAlpha"/>
<feOffset dy="-2"/>
<feGaussianBlur stdDeviation="3"/>
<feComposite in2="hardAlpha" operator="out"/>
<feColorMatrix type="matrix" values="0 0 0 0 0.0833333 0 0 0 0 0.0833333 0 0 0 0 0.0833333 0 0 0 0.9 0"/>
<feBlend mode="normal" in2="BackgroundImageFix" result="effect1_dropShadow_112_22"/>
<feBlend mode="normal" in="SourceGraphic" in2="effect1_dropShadow_112_22" result="shape"/>
</filter>
<filter id="filter14_d_112_22" x="35.1995" y="28.1031" width="178.3" height="202.897" filterUnits="userSpaceOnUse" color-interpolation-filters="sRGB">
<feFlood flood-opacity="0" result="BackgroundImageFix"/>
<feColorMatrix in="SourceAlpha" type="matrix" values="0 0 0 0 0 0 0 0 0 0 0 0 0 0 0 0 0 0 127 0" result="hardAlpha"/>
<feOffset dy="2"/>
<feGaussianBlur stdDeviation="20"/>
<feComposite in2="hardAlpha" operator="out"/>
<feColorMatrix type="matrix" values="0 0 0 0 0 0 0 0 0 0 0 0 0 0 0 0 0 0 0.7 0"/>
<feBlend mode="normal" in2="BackgroundImageFix" result="effect1_dropShadow_112_22"/>
<feBlend mode="normal" in="SourceGraphic" in2="effect1_dropShadow_112_22" result="shape"/>
</filter>
</defs>
</svg>
