<svg width="179" height="215" viewBox="0 0 179 215" fill="none" xmlns="http://www.w3.org/2000/svg">
<g filter="url(#filter0_d_110_393)">
<path d="M156.211 95.9816V99.6514H163.55V95.9816C163.55 94.6055 162.174 92.7706 159.881 92.7706C157.587 92.7706 156.211 94.6055 156.211 95.9816Z" fill="#0B1A24"/>
<path d="M156.211 95.9816V99.6514H163.55V95.9816C163.55 94.6055 162.174 92.7706 159.881 92.7706C157.587 92.7706 156.211 94.6055 156.211 95.9816Z" stroke="#0B1A24" stroke-width="0.5"/>
</g>
<g filter="url(#filter1_d_110_393)">
<path d="M141.532 86.3486V100.11H148.872V86.3486C148.872 84.9725 147.496 82.6789 145.202 82.6789C142.908 82.6789 141.532 84.9725 141.532 86.3486Z" fill="#0B1A24"/>
<path d="M141.532 86.3486V100.11H148.872V86.3486C148.872 84.9725 147.496 82.6789 145.202 82.6789C142.908 82.6789 141.532 84.9725 141.532 86.3486Z" stroke="#0B1A24" stroke-width="0.5"/>
</g>
<g filter="url(#filter2_d_110_393)">
<path d="M126.853 71.2575V100.11H134.193V71.2575C134.193 69.7684 132.817 68 130.523 68C128.229 68 126.853 69.8615 126.853 71.2575Z" fill="#0B1A24"/>
<path d="M126.853 71.2575V100.11H134.193V71.2575C134.193 69.7684 132.817 68 130.523 68C128.229 68 126.853 69.8615 126.853 71.2575Z" stroke="#0B1A24" stroke-width="0.5"/>
</g>
<g filter="url(#filter3_d_110_393)">
<path d="M112.174 86.3486V100.11H119.514V86.3486C119.514 84.9725 118.138 82.6789 115.844 82.6789C113.55 82.6789 112.174 84.9725 112.174 86.3486Z" fill="#0B1A24"/>
<path d="M112.174 86.3486V100.11H119.514V86.3486C119.514 84.9725 118.138 82.6789 115.844 82.6789C113.55 82.6789 112.174 84.9725 112.174 86.3486Z" stroke="#0B1A24" stroke-width="0.5"/>
</g>
<g filter="url(#filter4_d_110_393)">
<path d="M50.7065 86.3486V100.11H58.046V86.3486C58.046 84.9725 56.6698 82.6789 54.3763 82.6789C52.0827 82.6789 50.7065 84.9725 50.7065 86.3486Z" fill="#0B1A24"/>
<path d="M50.7065 86.3486V100.11H58.046V86.3486C58.046 84.9725 56.6698 82.6789 54.3763 82.6789C52.0827 82.6789 50.7065 84.9725 50.7065 86.3486Z" stroke="#0B1A24" stroke-width="0.5"/>
</g>
<g filter="url(#filter5_d_110_393)">
<path d="M36.0276 71.2575V100.11H43.367V71.2575C43.367 69.7684 41.9909 68 39.6973 68C37.4037 68 36.0276 69.8615 36.0276 71.2575Z" fill="#0B1A24"/>
<path d="M36.0276 71.2575V100.11H43.367V71.2575C43.367 69.7684 41.9909 68 39.6973 68C37.4037 68 36.0276 69.8615 36.0276 71.2575Z" stroke="#0B1A24" stroke-width="0.5"/>
</g>
<g filter="url(#filter6_d_110_393)">
<path d="M21.3486 86.3486V100.11H28.6881V86.3486C28.6881 84.9725 27.3119 82.6789 25.0184 82.6789C22.7248 82.6789 21.3486 84.9725 21.3486 86.3486Z" fill="#0B1A24"/>
<path d="M21.3486 86.3486V100.11H28.6881V86.3486C28.6881 84.9725 27.3119 82.6789 25.0184 82.6789C22.7248 82.6789 21.3486 84.9725 21.3486 86.3486Z" stroke="#0B1A24" stroke-width="0.5"/>
</g>
<g filter="url(#filter7_d_110_393)">
<path d="M6.66968 95.9816V99.6514H14.0091V95.9816C14.0091 94.6055 12.633 92.7706 10.3394 92.7706C8.04582 92.7706 6.66968 94.6055 6.66968 95.9816Z" fill="#0B1A24"/>
<path d="M6.66968 95.9816V99.6514H14.0091V95.9816C14.0091 94.6055 12.633 92.7706 10.3394 92.7706C8.04582 92.7706 6.66968 94.6055 6.66968 95.9816Z" stroke="#0B1A24" stroke-width="0.5"/>
</g>
<g filter="url(#filter8_d_110_393)">
<path d="M156.211 113.872V100.11H148.871V113.872C148.871 115.248 150.248 117.541 152.541 117.541C154.835 117.541 156.211 115.248 156.211 113.872Z" fill="#0B1A24"/>
<path d="M156.211 113.872V100.11H148.871V113.872C148.871 115.248 150.248 117.541 152.541 117.541C154.835 117.541 156.211 115.248 156.211 113.872Z" stroke="#0B1A24" stroke-width="0.5"/>
</g>
<g filter="url(#filter9_d_110_393)">
<path d="M141.532 128.963V100.11H134.193V128.963C134.193 130.452 135.569 132.22 137.863 132.22C140.156 132.22 141.532 130.359 141.532 128.963Z" fill="#0B1A24"/>
<path d="M141.532 128.963V100.11H134.193V128.963C134.193 130.452 135.569 132.22 137.863 132.22C140.156 132.22 141.532 130.359 141.532 128.963Z" stroke="#0B1A24" stroke-width="0.5"/>
</g>
<g filter="url(#filter10_d_110_393)">
<path d="M126.853 113.872V100.11H119.514V113.872C119.514 115.248 120.89 117.541 123.184 117.541C125.477 117.541 126.853 115.248 126.853 113.872Z" fill="#0B1A24"/>
<path d="M126.853 113.872V100.11H119.514V113.872C119.514 115.248 120.89 117.541 123.184 117.541C125.477 117.541 126.853 115.248 126.853 113.872Z" stroke="#0B1A24" stroke-width="0.5"/>
</g>
<g filter="url(#filter11_d_110_393)">
<path d="M50.7065 128.963L50.7065 100.11H43.3671V128.963C43.3671 130.452 44.7432 132.22 47.0368 132.22C49.3304 132.22 50.7065 130.359 50.7065 128.963Z" fill="#0B1A24"/>
<path d="M50.7065 128.963L50.7065 100.11H43.3671V128.963C43.3671 130.452 44.7432 132.22 47.0368 132.22C49.3304 132.22 50.7065 130.359 50.7065 128.963Z" stroke="#0B1A24" stroke-width="0.5"/>
</g>
<g filter="url(#filter12_d_110_393)">
<path d="M36.0276 113.872V100.11H28.6881V113.872C28.6881 115.248 30.0643 117.541 32.3579 117.541C34.6514 117.541 36.0276 115.248 36.0276 113.872Z" fill="#0B1A24"/>
<path d="M36.0276 113.872V100.11H28.6881V113.872C28.6881 115.248 30.0643 117.541 32.3579 117.541C34.6514 117.541 36.0276 115.248 36.0276 113.872Z" stroke="#0B1A24" stroke-width="0.5"/>
</g>
<g filter="url(#filter13_d_110_393)">
<path d="M21.3486 103.78V100.11H14.0092V103.78C14.0092 105.156 15.3853 106.991 17.6789 106.991C19.9725 106.991 21.3486 105.156 21.3486 103.78Z" fill="#0B1A24"/>
<path d="M21.3486 103.78V100.11H14.0092V103.78C14.0092 105.156 15.3853 106.991 17.6789 106.991C19.9725 106.991 21.3486 105.156 21.3486 103.78Z" stroke="#0B1A24" stroke-width="0.5"/>
</g>
<line x1="3" y1="100.069" x2="168.138" y2="100.069" stroke="#0B1A24"/>
<g filter="url(#filter14_d_110_393)">
<path d="M40.1994 86.9551C40.1994 81.8701 41.1707 77.0993 43.1133 72.6428C45.0559 68.1863 47.6841 64.3011 50.9979 60.9873C54.3688 57.6164 58.2826 54.9596 62.7391 53.017C67.1956 51.0744 71.9663 50.1031 77.0513 50.1031H133.443V74.6997H77.0513C75.3373 74.6997 73.7375 75.0139 72.252 75.6424C70.7665 76.2709 69.4524 77.1565 68.3097 78.2991C67.2241 79.3847 66.3671 80.6702 65.7386 82.1557C65.1102 83.6412 64.7959 85.241 64.7959 86.9551C64.7959 88.6691 65.1102 90.2974 65.7386 91.8401C66.3671 93.3256 67.2241 94.6397 68.3097 95.7824C69.4524 96.8679 70.7665 97.725 72.252 98.3534C73.7375 98.9819 75.3373 99.2962 77.0513 99.2962H101.648C106.733 99.2962 111.504 100.267 115.96 102.21C120.474 104.095 124.387 106.724 127.701 110.095C131.072 113.408 133.7 117.322 135.586 121.836C137.528 126.292 138.5 131.063 138.5 136.148C138.5 141.233 137.528 146.004 135.586 150.46C133.7 154.917 131.072 158.831 127.701 162.202C124.387 165.515 120.474 168.144 115.96 170.086C111.504 172.029 106.733 173 101.648 173H47.0556V148.403H101.648C103.362 148.403 104.962 148.089 106.447 147.461C107.933 146.832 109.218 145.975 110.304 144.89C111.446 143.747 112.332 142.433 112.961 140.947C113.589 139.462 113.903 137.862 113.903 136.148C113.903 134.434 113.589 132.834 112.961 131.349C112.332 129.863 111.446 128.578 110.304 127.492C109.218 126.349 107.933 125.464 106.447 124.835C104.962 124.207 103.362 123.893 101.648 123.893H77.0513C71.9663 123.893 67.1956 122.921 62.7391 120.979C58.2826 119.036 54.3688 116.408 50.9979 113.094C47.6841 109.723 45.0559 105.81 43.1133 101.353C41.1707 96.8394 40.1994 92.0401 40.1994 86.9551Z" fill="#0B1A24"/>
</g>
<defs>
<filter id="filter0_d_110_393" x="149.961" y="88.5206" width="19.8394" height="19.3807" filterUnits="userSpaceOnUse" color-interpolation-filters="sRGB">
<feFlood flood-opacity="0" result="BackgroundImageFix"/>
<feColorMatrix in="SourceAlpha" type="matrix" values="0 0 0 0 0 0 0 0 0 0 0 0 0 0 0 0 0 0 127 0" result="hardAlpha"/>
<feOffset dy="2"/>
<feGaussianBlur stdDeviation="3"/>
<feComposite in2="hardAlpha" operator="out"/>
<feColorMatrix type="matrix" values="0 0 0 0 0.0833333 0 0 0 0 0.0833333 0 0 0 0 0.0833333 0 0 0 0.9 0"/>
<feBlend mode="normal" in2="BackgroundImageFix" result="effect1_dropShadow_110_393"/>
<feBlend mode="normal" in="SourceGraphic" in2="effect1_dropShadow_110_393" result="shape"/>
</filter>
<filter id="filter1_d_110_393" x="135.282" y="78.4289" width="19.8394" height="29.9312" filterUnits="userSpaceOnUse" color-interpolation-filters="sRGB">
<feFlood flood-opacity="0" result="BackgroundImageFix"/>
<feColorMatrix in="SourceAlpha" type="matrix" values="0 0 0 0 0 0 0 0 0 0 0 0 0 0 0 0 0 0 127 0" result="hardAlpha"/>
<feOffset dy="2"/>
<feGaussianBlur stdDeviation="3"/>
<feComposite in2="hardAlpha" operator="out"/>
<feColorMatrix type="matrix" values="0 0 0 0 0.0833333 0 0 0 0 0.0833333 0 0 0 0 0.0833333 0 0 0 0.9 0"/>
<feBlend mode="normal" in2="BackgroundImageFix" result="effect1_dropShadow_110_393"/>
<feBlend mode="normal" in="SourceGraphic" in2="effect1_dropShadow_110_393" result="shape"/>
</filter>
<filter id="filter2_d_110_393" x="120.603" y="63.75" width="19.8394" height="44.6101" filterUnits="userSpaceOnUse" color-interpolation-filters="sRGB">
<feFlood flood-opacity="0" result="BackgroundImageFix"/>
<feColorMatrix in="SourceAlpha" type="matrix" values="0 0 0 0 0 0 0 0 0 0 0 0 0 0 0 0 0 0 127 0" result="hardAlpha"/>
<feOffset dy="2"/>
<feGaussianBlur stdDeviation="3"/>
<feComposite in2="hardAlpha" operator="out"/>
<feColorMatrix type="matrix" values="0 0 0 0 0.0833333 0 0 0 0 0.0833333 0 0 0 0 0.0833333 0 0 0 0.9 0"/>
<feBlend mode="normal" in2="BackgroundImageFix" result="effect1_dropShadow_110_393"/>
<feBlend mode="normal" in="SourceGraphic" in2="effect1_dropShadow_110_393" result="shape"/>
</filter>
<filter id="filter3_d_110_393" x="105.924" y="78.4289" width="19.8394" height="29.9312" filterUnits="userSpaceOnUse" color-interpolation-filters="sRGB">
<feFlood flood-opacity="0" result="BackgroundImageFix"/>
<feColorMatrix in="SourceAlpha" type="matrix" values="0 0 0 0 0 0 0 0 0 0 0 0 0 0 0 0 0 0 127 0" result="hardAlpha"/>
<feOffset dy="2"/>
<feGaussianBlur stdDeviation="3"/>
<feComposite in2="hardAlpha" operator="out"/>
<feColorMatrix type="matrix" values="0 0 0 0 0.0833333 0 0 0 0 0.0833333 0 0 0 0 0.0833333 0 0 0 0.9 0"/>
<feBlend mode="normal" in2="BackgroundImageFix" result="effect1_dropShadow_110_393"/>
<feBlend mode="normal" in="SourceGraphic" in2="effect1_dropShadow_110_393" result="shape"/>
</filter>
<filter id="filter4_d_110_393" x="44.4565" y="78.4289" width="19.8394" height="29.9312" filterUnits="userSpaceOnUse" color-interpolation-filters="sRGB">
<feFlood flood-opacity="0" result="BackgroundImageFix"/>
<feColorMatrix in="SourceAlpha" type="matrix" values="0 0 0 0 0 0 0 0 0 0 0 0 0 0 0 0 0 0 127 0" result="hardAlpha"/>
<feOffset dy="2"/>
<feGaussianBlur stdDeviation="3"/>
<feComposite in2="hardAlpha" operator="out"/>
<feColorMatrix type="matrix" values="0 0 0 0 0.0833333 0 0 0 0 0.0833333 0 0 0 0 0.0833333 0 0 0 0.9 0"/>
<feBlend mode="normal" in2="BackgroundImageFix" result="effect1_dropShadow_110_393"/>
<feBlend mode="normal" in="SourceGraphic" in2="effect1_dropShadow_110_393" result="shape"/>
</filter>
<filter id="filter5_d_110_393" x="29.7776" y="63.75" width="19.8394" height="44.6101" filterUnits="userSpaceOnUse" color-interpolation-filters="sRGB">
<feFlood flood-opacity="0" result="BackgroundImageFix"/>
<feColorMatrix in="SourceAlpha" type="matrix" values="0 0 0 0 0 0 0 0 0 0 0 0 0 0 0 0 0 0 127 0" result="hardAlpha"/>
<feOffset dy="2"/>
<feGaussianBlur stdDeviation="3"/>
<feComposite in2="hardAlpha" operator="out"/>
<feColorMatrix type="matrix" values="0 0 0 0 0.0833333 0 0 0 0 0.0833333 0 0 0 0 0.0833333 0 0 0 0.9 0"/>
<feBlend mode="normal" in2="BackgroundImageFix" result="effect1_dropShadow_110_393"/>
<feBlend mode="normal" in="SourceGraphic" in2="effect1_dropShadow_110_393" result="shape"/>
</filter>
<filter id="filter6_d_110_393" x="15.0986" y="78.4289" width="19.8394" height="29.9312" filterUnits="userSpaceOnUse" color-interpolation-filters="sRGB">
<feFlood flood-opacity="0" result="BackgroundImageFix"/>
<feColorMatrix in="SourceAlpha" type="matrix" values="0 0 0 0 0 0 0 0 0 0 0 0 0 0 0 0 0 0 127 0" result="hardAlpha"/>
<feOffset dy="2"/>
<feGaussianBlur stdDeviation="3"/>
<feComposite in2="hardAlpha" operator="out"/>
<feColorMatrix type="matrix" values="0 0 0 0 0.0833333 0 0 0 0 0.0833333 0 0 0 0 0.0833333 0 0 0 0.9 0"/>
<feBlend mode="normal" in2="BackgroundImageFix" result="effect1_dropShadow_110_393"/>
<feBlend mode="normal" in="SourceGraphic" in2="effect1_dropShadow_110_393" result="shape"/>
</filter>
<filter id="filter7_d_110_393" x="0.419678" y="88.5206" width="19.8394" height="19.3807" filterUnits="userSpaceOnUse" color-interpolation-filters="sRGB">
<feFlood flood-opacity="0" result="BackgroundImageFix"/>
<feColorMatrix in="SourceAlpha" type="matrix" values="0 0 0 0 0 0 0 0 0 0 0 0 0 0 0 0 0 0 127 0" result="hardAlpha"/>
<feOffset dy="2"/>
<feGaussianBlur stdDeviation="3"/>
<feComposite in2="hardAlpha" operator="out"/>
<feColorMatrix type="matrix" values="0 0 0 0 0.0833333 0 0 0 0 0.0833333 0 0 0 0 0.0833333 0 0 0 0.9 0"/>
<feBlend mode="normal" in2="BackgroundImageFix" result="effect1_dropShadow_110_393"/>
<feBlend mode="normal" in="SourceGraphic" in2="effect1_dropShadow_110_393" result="shape"/>
</filter>
<filter id="filter8_d_110_393" x="142.622" y="91.8601" width="19.8394" height="29.9312" filterUnits="userSpaceOnUse" color-interpolation-filters="sRGB">
<feFlood flood-opacity="0" result="BackgroundImageFix"/>
<feColorMatrix in="SourceAlpha" type="matrix" values="0 0 0 0 0 0 0 0 0 0 0 0 0 0 0 0 0 0 127 0" result="hardAlpha"/>
<feOffset dy="-2"/>
<feGaussianBlur stdDeviation="3"/>
<feComposite in2="hardAlpha" operator="out"/>
<feColorMatrix type="matrix" values="0 0 0 0 0.0833333 0 0 0 0 0.0833333 0 0 0 0 0.0833333 0 0 0 0.9 0"/>
<feBlend mode="normal" in2="BackgroundImageFix" result="effect1_dropShadow_110_393"/>
<feBlend mode="normal" in="SourceGraphic" in2="effect1_dropShadow_110_393" result="shape"/>
</filter>
<filter id="filter9_d_110_393" x="127.943" y="91.8601" width="19.8394" height="44.6101" filterUnits="userSpaceOnUse" color-interpolation-filters="sRGB">
<feFlood flood-opacity="0" result="BackgroundImageFix"/>
<feColorMatrix in="SourceAlpha" type="matrix" values="0 0 0 0 0 0 0 0 0 0 0 0 0 0 0 0 0 0 127 0" result="hardAlpha"/>
<feOffset dy="-2"/>
<feGaussianBlur stdDeviation="3"/>
<feComposite in2="hardAlpha" operator="out"/>
<feColorMatrix type="matrix" values="0 0 0 0 0.0833333 0 0 0 0 0.0833333 0 0 0 0 0.0833333 0 0 0 0.9 0"/>
<feBlend mode="normal" in2="BackgroundImageFix" result="effect1_dropShadow_110_393"/>
<feBlend mode="normal" in="SourceGraphic" in2="effect1_dropShadow_110_393" result="shape"/>
</filter>
<filter id="filter10_d_110_393" x="113.264" y="91.8601" width="19.8394" height="29.9312" filterUnits="userSpaceOnUse" color-interpolation-filters="sRGB">
<feFlood flood-opacity="0" result="BackgroundImageFix"/>
<feColorMatrix in="SourceAlpha" type="matrix" values="0 0 0 0 0 0 0 0 0 0 0 0 0 0 0 0 0 0 127 0" result="hardAlpha"/>
<feOffset dy="-2"/>
<feGaussianBlur stdDeviation="3"/>
<feComposite in2="hardAlpha" operator="out"/>
<feColorMatrix type="matrix" values="0 0 0 0 0.0833333 0 0 0 0 0.0833333 0 0 0 0 0.0833333 0 0 0 0.9 0"/>
<feBlend mode="normal" in2="BackgroundImageFix" result="effect1_dropShadow_110_393"/>
<feBlend mode="normal" in="SourceGraphic" in2="effect1_dropShadow_110_393" result="shape"/>
</filter>
<filter id="filter11_d_110_393" x="37.1172" y="91.8601" width="19.8394" height="44.6101" filterUnits="userSpaceOnUse" color-interpolation-filters="sRGB">
<feFlood flood-opacity="0" result="BackgroundImageFix"/>
<feColorMatrix in="SourceAlpha" type="matrix" values="0 0 0 0 0 0 0 0 0 0 0 0 0 0 0 0 0 0 127 0" result="hardAlpha"/>
<feOffset dy="-2"/>
<feGaussianBlur stdDeviation="3"/>
<feComposite in2="hardAlpha" operator="out"/>
<feColorMatrix type="matrix" values="0 0 0 0 0.0833333 0 0 0 0 0.0833333 0 0 0 0 0.0833333 0 0 0 0.9 0"/>
<feBlend mode="normal" in2="BackgroundImageFix" result="effect1_dropShadow_110_393"/>
<feBlend mode="normal" in="SourceGraphic" in2="effect1_dropShadow_110_393" result="shape"/>
</filter>
<filter id="filter12_d_110_393" x="22.4382" y="91.8601" width="19.8394" height="29.9312" filterUnits="userSpaceOnUse" color-interpolation-filters="sRGB">
<feFlood flood-opacity="0" result="BackgroundImageFix"/>
<feColorMatrix in="SourceAlpha" type="matrix" values="0 0 0 0 0 0 0 0 0 0 0 0 0 0 0 0 0 0 127 0" result="hardAlpha"/>
<feOffset dy="-2"/>
<feGaussianBlur stdDeviation="3"/>
<feComposite in2="hardAlpha" operator="out"/>
<feColorMatrix type="matrix" values="0 0 0 0 0.0833333 0 0 0 0 0.0833333 0 0 0 0 0.0833333 0 0 0 0.9 0"/>
<feBlend mode="normal" in2="BackgroundImageFix" result="effect1_dropShadow_110_393"/>
<feBlend mode="normal" in="SourceGraphic" in2="effect1_dropShadow_110_393" result="shape"/>
</filter>
<filter id="filter13_d_110_393" x="7.75928" y="91.8601" width="19.8394" height="19.3807" filterUnits="userSpaceOnUse" color-interpolation-filters="sRGB">
<feFlood flood-opacity="0" result="BackgroundImageFix"/>
<feColorMatrix in="SourceAlpha" type="matrix" values="0 0 0 0 0 0 0 0 0 0 0 0 0 0 0 0 0 0 127 0" result="hardAlpha"/>
<feOffset dy="-2"/>
<feGaussianBlur stdDeviation="3"/>
<feComposite in2="hardAlpha" operator="out"/>
<feColorMatrix type="matrix" values="0 0 0 0 0.0833333 0 0 0 0 0.0833333 0 0 0 0 0.0833333 0 0 0 0.9 0"/>
<feBlend mode="normal" in2="BackgroundImageFix" result="effect1_dropShadow_110_393"/>
<feBlend mode="normal" in="SourceGraphic" in2="effect1_dropShadow_110_393" result="shape"/>
</filter>
<filter id="filter14_d_110_393" x="0.199463" y="12.1031" width="178.3" height="202.897" filterUnits="userSpaceOnUse" color-interpolation-filters="sRGB">
<feFlood flood-opacity="0" result="BackgroundImageFix"/>
<feColorMatrix in="SourceAlpha" type="matrix" values="0 0 0 0 0 0 0 0 0 0 0 0 0 0 0 0 0 0 127 0" result="hardAlpha"/>
<feOffset dy="2"/>
<feGaussianBlur stdDeviation="20"/>
<feComposite in2="hardAlpha" operator="out"/>
<feColorMatrix type="matrix" values="0 0 0 0 0 0 0 0 0 0 0 0 0 0 0 0 0 0 0.7 0"/>
<feBlend mode="normal" in2="BackgroundImageFix" result="effect1_dropShadow_110_393"/>
<feBlend mode="normal" in="SourceGraphic" in2="effect1_dropShadow_110_393" result="shape"/>
</filter>
</defs>
</svg>
