<svg width="300" height="130" viewBox="0 0 300 130" fill="none" xmlns="http://www.w3.org/2000/svg">
<g filter="url(#filter0_d_110_727)">
<path d="M278.333 57.2856V64.1428H291.666V57.2856C291.666 54.7142 289.166 51.2856 285 51.2856C280.833 51.2856 278.333 54.7142 278.333 57.2856Z" fill="#CCDCF0"/>
<path d="M278.333 57.2856V64.1428H291.666V57.2856C291.666 54.7142 289.166 51.2856 285 51.2856C280.833 51.2856 278.333 54.7142 278.333 57.2856Z" stroke="#0B1A24" stroke-width="0.5"/>
</g>
<g filter="url(#filter1_d_110_727)">
<path d="M251.667 39.2856V64.9999H265V39.2856C265 36.7142 262.5 32.4285 258.333 32.4285C254.167 32.4285 251.667 36.7142 251.667 39.2856Z" fill="#CCDCF0"/>
<path d="M251.667 39.2856V64.9999H265V39.2856C265 36.7142 262.5 32.4285 258.333 32.4285C254.167 32.4285 251.667 36.7142 251.667 39.2856Z" stroke="#0B1A24" stroke-width="0.5"/>
</g>
<g filter="url(#filter2_d_110_727)">
<path d="M225 11.0869V64.9999H238.334V11.0869C238.334 8.30434 235.834 5 231.667 5C227.5 5 225 8.47826 225 11.0869Z" fill="#CCDCF0"/>
<path d="M225 11.0869V64.9999H238.334V11.0869C238.334 8.30434 235.834 5 231.667 5C227.5 5 225 8.47826 225 11.0869Z" stroke="#0B1A24" stroke-width="0.5"/>
</g>
<g filter="url(#filter3_d_110_727)">
<path d="M198.333 39.2856V64.9999H211.667V39.2856C211.667 36.7142 209.167 32.4285 205 32.4285C200.833 32.4285 198.333 36.7142 198.333 39.2856Z" fill="#CCDCF0"/>
<path d="M198.333 39.2856V64.9999H211.667V39.2856C211.667 36.7142 209.167 32.4285 205 32.4285C200.833 32.4285 198.333 36.7142 198.333 39.2856Z" stroke="#0B1A24" stroke-width="0.5"/>
</g>
<g filter="url(#filter4_d_110_727)">
<path d="M86.667 39.2856V64.9999H100V39.2856C100 36.7142 97.5003 32.4285 93.3337 32.4285C89.167 32.4285 86.667 36.7142 86.667 39.2856Z" fill="#CCDCF0"/>
<path d="M86.667 39.2856V64.9999H100V39.2856C100 36.7142 97.5003 32.4285 93.3337 32.4285C89.167 32.4285 86.667 36.7142 86.667 39.2856Z" stroke="#0B1A24" stroke-width="0.5"/>
</g>
<g filter="url(#filter5_d_110_727)">
<path d="M60 11.0869V64.9999H73.3333V11.0869C73.3333 8.30434 70.8333 5 66.6667 5C62.5 5 60 8.47826 60 11.0869Z" fill="#CCDCF0"/>
<path d="M60 11.0869V64.9999H73.3333V11.0869C73.3333 8.30434 70.8333 5 66.6667 5C62.5 5 60 8.47826 60 11.0869Z" stroke="#0B1A24" stroke-width="0.5"/>
</g>
<g filter="url(#filter6_d_110_727)">
<path d="M33.3333 39.2856V64.9999H46.6666V39.2856C46.6666 36.7142 44.1666 32.4285 39.9999 32.4285C35.8333 32.4285 33.3333 36.7142 33.3333 39.2856Z" fill="#CCDCF0"/>
<path d="M33.3333 39.2856V64.9999H46.6666V39.2856C46.6666 36.7142 44.1666 32.4285 39.9999 32.4285C35.8333 32.4285 33.3333 36.7142 33.3333 39.2856Z" stroke="#0B1A24" stroke-width="0.5"/>
</g>
<g filter="url(#filter7_d_110_727)">
<path d="M6.66675 57.2856V64.1428H20.0001V57.2856C20.0001 54.7142 17.5001 51.2856 13.3334 51.2856C9.16675 51.2856 6.66675 54.7142 6.66675 57.2856Z" fill="#CCDCF0"/>
<path d="M6.66675 57.2856V64.1428H20.0001V57.2856C20.0001 54.7142 17.5001 51.2856 13.3334 51.2856C9.16675 51.2856 6.66675 54.7142 6.66675 57.2856Z" stroke="#0B1A24" stroke-width="0.5"/>
</g>
<g filter="url(#filter8_d_110_727)">
<path d="M278.333 90.7144V65.0001H265V90.7144C265 93.2858 267.5 97.5715 271.666 97.5715C275.833 97.5715 278.333 93.2858 278.333 90.7144Z" fill="#CCDCF0"/>
<path d="M278.333 90.7144V65.0001H265V90.7144C265 93.2858 267.5 97.5715 271.666 97.5715C275.833 97.5715 278.333 93.2858 278.333 90.7144Z" stroke="#0B1A24" stroke-width="0.5"/>
</g>
<g filter="url(#filter9_d_110_727)">
<path d="M251.667 118.913V65.0003H238.333V118.913C238.333 121.696 240.833 125 245 125C249.167 125 251.667 121.522 251.667 118.913Z" fill="#CCDCF0"/>
<path d="M251.667 118.913V65.0003H238.333V118.913C238.333 121.696 240.833 125 245 125C249.167 125 251.667 121.522 251.667 118.913Z" stroke="#0B1A24" stroke-width="0.5"/>
</g>
<g filter="url(#filter10_d_110_727)">
<path d="M225 90.7144V65.0001H211.667V90.7144C211.667 93.2858 214.167 97.5715 218.334 97.5715C222.5 97.5715 225 93.2858 225 90.7144Z" fill="#CCDCF0"/>
<path d="M225 90.7144V65.0001H211.667V90.7144C211.667 93.2858 214.167 97.5715 218.334 97.5715C222.5 97.5715 225 93.2858 225 90.7144Z" stroke="#0B1A24" stroke-width="0.5"/>
</g>
<g filter="url(#filter11_d_110_727)">
<path d="M86.667 118.913L86.667 65.0003H73.3337V118.913C73.3337 121.696 75.8337 125 80.0003 125C84.167 125 86.667 121.522 86.667 118.913Z" fill="#CCDCF0"/>
<path d="M86.667 118.913L86.667 65.0003H73.3337V118.913C73.3337 121.696 75.8337 125 80.0003 125C84.167 125 86.667 121.522 86.667 118.913Z" stroke="#0B1A24" stroke-width="0.5"/>
</g>
<g filter="url(#filter12_d_110_727)">
<path d="M60 90.7144L60 65.0001H46.6667V90.7144C46.6667 93.2858 49.1667 97.5715 53.3333 97.5715C57.5 97.5715 60 93.2858 60 90.7144Z" fill="#CCDCF0"/>
<path d="M60 90.7144L60 65.0001H46.6667V90.7144C46.6667 93.2858 49.1667 97.5715 53.3333 97.5715C57.5 97.5715 60 93.2858 60 90.7144Z" stroke="#0B1A24" stroke-width="0.5"/>
</g>
<g filter="url(#filter13_d_110_727)">
<path d="M33.3333 71.8574V65.0003H19.9999V71.8574C19.9999 74.4289 22.4999 77.8574 26.6666 77.8574C30.8333 77.8574 33.3333 74.4289 33.3333 71.8574Z" fill="#CCDCF0"/>
<path d="M33.3333 71.8574V65.0003H19.9999V71.8574C19.9999 74.4289 22.4999 77.8574 26.6666 77.8574C30.8333 77.8574 33.3333 74.4289 33.3333 71.8574Z" stroke="#0B1A24" stroke-width="0.5"/>
</g>
<line y1="65.3572" x2="300" y2="65.3572" stroke="#0B1A24"/>
<defs>
<filter id="filter0_d_110_727" x="272.083" y="47.0356" width="25.8333" height="25.3572" filterUnits="userSpaceOnUse" color-interpolation-filters="sRGB">
<feFlood flood-opacity="0" result="BackgroundImageFix"/>
<feColorMatrix in="SourceAlpha" type="matrix" values="0 0 0 0 0 0 0 0 0 0 0 0 0 0 0 0 0 0 127 0" result="hardAlpha"/>
<feOffset dy="2"/>
<feGaussianBlur stdDeviation="3"/>
<feComposite in2="hardAlpha" operator="out"/>
<feColorMatrix type="matrix" values="0 0 0 0 0.0833333 0 0 0 0 0.0833333 0 0 0 0 0.0833333 0 0 0 0.9 0"/>
<feBlend mode="normal" in2="BackgroundImageFix" result="effect1_dropShadow_110_727"/>
<feBlend mode="normal" in="SourceGraphic" in2="effect1_dropShadow_110_727" result="shape"/>
</filter>
<filter id="filter1_d_110_727" x="245.417" y="28.1785" width="25.8333" height="45.0713" filterUnits="userSpaceOnUse" color-interpolation-filters="sRGB">
<feFlood flood-opacity="0" result="BackgroundImageFix"/>
<feColorMatrix in="SourceAlpha" type="matrix" values="0 0 0 0 0 0 0 0 0 0 0 0 0 0 0 0 0 0 127 0" result="hardAlpha"/>
<feOffset dy="2"/>
<feGaussianBlur stdDeviation="3"/>
<feComposite in2="hardAlpha" operator="out"/>
<feColorMatrix type="matrix" values="0 0 0 0 0.0833333 0 0 0 0 0.0833333 0 0 0 0 0.0833333 0 0 0 0.9 0"/>
<feBlend mode="normal" in2="BackgroundImageFix" result="effect1_dropShadow_110_727"/>
<feBlend mode="normal" in="SourceGraphic" in2="effect1_dropShadow_110_727" result="shape"/>
</filter>
<filter id="filter2_d_110_727" x="218.75" y="0.75" width="25.8333" height="72.5" filterUnits="userSpaceOnUse" color-interpolation-filters="sRGB">
<feFlood flood-opacity="0" result="BackgroundImageFix"/>
<feColorMatrix in="SourceAlpha" type="matrix" values="0 0 0 0 0 0 0 0 0 0 0 0 0 0 0 0 0 0 127 0" result="hardAlpha"/>
<feOffset dy="2"/>
<feGaussianBlur stdDeviation="3"/>
<feComposite in2="hardAlpha" operator="out"/>
<feColorMatrix type="matrix" values="0 0 0 0 0.0833333 0 0 0 0 0.0833333 0 0 0 0 0.0833333 0 0 0 0.9 0"/>
<feBlend mode="normal" in2="BackgroundImageFix" result="effect1_dropShadow_110_727"/>
<feBlend mode="normal" in="SourceGraphic" in2="effect1_dropShadow_110_727" result="shape"/>
</filter>
<filter id="filter3_d_110_727" x="192.083" y="28.1785" width="25.8333" height="45.0713" filterUnits="userSpaceOnUse" color-interpolation-filters="sRGB">
<feFlood flood-opacity="0" result="BackgroundImageFix"/>
<feColorMatrix in="SourceAlpha" type="matrix" values="0 0 0 0 0 0 0 0 0 0 0 0 0 0 0 0 0 0 127 0" result="hardAlpha"/>
<feOffset dy="2"/>
<feGaussianBlur stdDeviation="3"/>
<feComposite in2="hardAlpha" operator="out"/>
<feColorMatrix type="matrix" values="0 0 0 0 0.0833333 0 0 0 0 0.0833333 0 0 0 0 0.0833333 0 0 0 0.9 0"/>
<feBlend mode="normal" in2="BackgroundImageFix" result="effect1_dropShadow_110_727"/>
<feBlend mode="normal" in="SourceGraphic" in2="effect1_dropShadow_110_727" result="shape"/>
</filter>
<filter id="filter4_d_110_727" x="80.417" y="28.1785" width="25.8333" height="45.0713" filterUnits="userSpaceOnUse" color-interpolation-filters="sRGB">
<feFlood flood-opacity="0" result="BackgroundImageFix"/>
<feColorMatrix in="SourceAlpha" type="matrix" values="0 0 0 0 0 0 0 0 0 0 0 0 0 0 0 0 0 0 127 0" result="hardAlpha"/>
<feOffset dy="2"/>
<feGaussianBlur stdDeviation="3"/>
<feComposite in2="hardAlpha" operator="out"/>
<feColorMatrix type="matrix" values="0 0 0 0 0.0833333 0 0 0 0 0.0833333 0 0 0 0 0.0833333 0 0 0 0.9 0"/>
<feBlend mode="normal" in2="BackgroundImageFix" result="effect1_dropShadow_110_727"/>
<feBlend mode="normal" in="SourceGraphic" in2="effect1_dropShadow_110_727" result="shape"/>
</filter>
<filter id="filter5_d_110_727" x="53.75" y="0.75" width="25.8333" height="72.5" filterUnits="userSpaceOnUse" color-interpolation-filters="sRGB">
<feFlood flood-opacity="0" result="BackgroundImageFix"/>
<feColorMatrix in="SourceAlpha" type="matrix" values="0 0 0 0 0 0 0 0 0 0 0 0 0 0 0 0 0 0 127 0" result="hardAlpha"/>
<feOffset dy="2"/>
<feGaussianBlur stdDeviation="3"/>
<feComposite in2="hardAlpha" operator="out"/>
<feColorMatrix type="matrix" values="0 0 0 0 0.0833333 0 0 0 0 0.0833333 0 0 0 0 0.0833333 0 0 0 0.9 0"/>
<feBlend mode="normal" in2="BackgroundImageFix" result="effect1_dropShadow_110_727"/>
<feBlend mode="normal" in="SourceGraphic" in2="effect1_dropShadow_110_727" result="shape"/>
</filter>
<filter id="filter6_d_110_727" x="27.0833" y="28.1785" width="25.8333" height="45.0713" filterUnits="userSpaceOnUse" color-interpolation-filters="sRGB">
<feFlood flood-opacity="0" result="BackgroundImageFix"/>
<feColorMatrix in="SourceAlpha" type="matrix" values="0 0 0 0 0 0 0 0 0 0 0 0 0 0 0 0 0 0 127 0" result="hardAlpha"/>
<feOffset dy="2"/>
<feGaussianBlur stdDeviation="3"/>
<feComposite in2="hardAlpha" operator="out"/>
<feColorMatrix type="matrix" values="0 0 0 0 0.0833333 0 0 0 0 0.0833333 0 0 0 0 0.0833333 0 0 0 0.9 0"/>
<feBlend mode="normal" in2="BackgroundImageFix" result="effect1_dropShadow_110_727"/>
<feBlend mode="normal" in="SourceGraphic" in2="effect1_dropShadow_110_727" result="shape"/>
</filter>
<filter id="filter7_d_110_727" x="0.416748" y="47.0356" width="25.8333" height="25.3572" filterUnits="userSpaceOnUse" color-interpolation-filters="sRGB">
<feFlood flood-opacity="0" result="BackgroundImageFix"/>
<feColorMatrix in="SourceAlpha" type="matrix" values="0 0 0 0 0 0 0 0 0 0 0 0 0 0 0 0 0 0 127 0" result="hardAlpha"/>
<feOffset dy="2"/>
<feGaussianBlur stdDeviation="3"/>
<feComposite in2="hardAlpha" operator="out"/>
<feColorMatrix type="matrix" values="0 0 0 0 0.0833333 0 0 0 0 0.0833333 0 0 0 0 0.0833333 0 0 0 0.9 0"/>
<feBlend mode="normal" in2="BackgroundImageFix" result="effect1_dropShadow_110_727"/>
<feBlend mode="normal" in="SourceGraphic" in2="effect1_dropShadow_110_727" result="shape"/>
</filter>
<filter id="filter8_d_110_727" x="258.75" y="56.7502" width="25.8333" height="45.0713" filterUnits="userSpaceOnUse" color-interpolation-filters="sRGB">
<feFlood flood-opacity="0" result="BackgroundImageFix"/>
<feColorMatrix in="SourceAlpha" type="matrix" values="0 0 0 0 0 0 0 0 0 0 0 0 0 0 0 0 0 0 127 0" result="hardAlpha"/>
<feOffset dy="-2"/>
<feGaussianBlur stdDeviation="3"/>
<feComposite in2="hardAlpha" operator="out"/>
<feColorMatrix type="matrix" values="0 0 0 0 0.0833333 0 0 0 0 0.0833333 0 0 0 0 0.0833333 0 0 0 0.9 0"/>
<feBlend mode="normal" in2="BackgroundImageFix" result="effect1_dropShadow_110_727"/>
<feBlend mode="normal" in="SourceGraphic" in2="effect1_dropShadow_110_727" result="shape"/>
</filter>
<filter id="filter9_d_110_727" x="232.083" y="56.7502" width="25.8333" height="72.5" filterUnits="userSpaceOnUse" color-interpolation-filters="sRGB">
<feFlood flood-opacity="0" result="BackgroundImageFix"/>
<feColorMatrix in="SourceAlpha" type="matrix" values="0 0 0 0 0 0 0 0 0 0 0 0 0 0 0 0 0 0 127 0" result="hardAlpha"/>
<feOffset dy="-2"/>
<feGaussianBlur stdDeviation="3"/>
<feComposite in2="hardAlpha" operator="out"/>
<feColorMatrix type="matrix" values="0 0 0 0 0.0833333 0 0 0 0 0.0833333 0 0 0 0 0.0833333 0 0 0 0.9 0"/>
<feBlend mode="normal" in2="BackgroundImageFix" result="effect1_dropShadow_110_727"/>
<feBlend mode="normal" in="SourceGraphic" in2="effect1_dropShadow_110_727" result="shape"/>
</filter>
<filter id="filter10_d_110_727" x="205.417" y="56.7502" width="25.8333" height="45.0713" filterUnits="userSpaceOnUse" color-interpolation-filters="sRGB">
<feFlood flood-opacity="0" result="BackgroundImageFix"/>
<feColorMatrix in="SourceAlpha" type="matrix" values="0 0 0 0 0 0 0 0 0 0 0 0 0 0 0 0 0 0 127 0" result="hardAlpha"/>
<feOffset dy="-2"/>
<feGaussianBlur stdDeviation="3"/>
<feComposite in2="hardAlpha" operator="out"/>
<feColorMatrix type="matrix" values="0 0 0 0 0.0833333 0 0 0 0 0.0833333 0 0 0 0 0.0833333 0 0 0 0.9 0"/>
<feBlend mode="normal" in2="BackgroundImageFix" result="effect1_dropShadow_110_727"/>
<feBlend mode="normal" in="SourceGraphic" in2="effect1_dropShadow_110_727" result="shape"/>
</filter>
<filter id="filter11_d_110_727" x="67.0837" y="56.7502" width="25.8333" height="72.5" filterUnits="userSpaceOnUse" color-interpolation-filters="sRGB">
<feFlood flood-opacity="0" result="BackgroundImageFix"/>
<feColorMatrix in="SourceAlpha" type="matrix" values="0 0 0 0 0 0 0 0 0 0 0 0 0 0 0 0 0 0 127 0" result="hardAlpha"/>
<feOffset dy="-2"/>
<feGaussianBlur stdDeviation="3"/>
<feComposite in2="hardAlpha" operator="out"/>
<feColorMatrix type="matrix" values="0 0 0 0 0.0833333 0 0 0 0 0.0833333 0 0 0 0 0.0833333 0 0 0 0.9 0"/>
<feBlend mode="normal" in2="BackgroundImageFix" result="effect1_dropShadow_110_727"/>
<feBlend mode="normal" in="SourceGraphic" in2="effect1_dropShadow_110_727" result="shape"/>
</filter>
<filter id="filter12_d_110_727" x="40.4167" y="56.7502" width="25.8333" height="45.0713" filterUnits="userSpaceOnUse" color-interpolation-filters="sRGB">
<feFlood flood-opacity="0" result="BackgroundImageFix"/>
<feColorMatrix in="SourceAlpha" type="matrix" values="0 0 0 0 0 0 0 0 0 0 0 0 0 0 0 0 0 0 127 0" result="hardAlpha"/>
<feOffset dy="-2"/>
<feGaussianBlur stdDeviation="3"/>
<feComposite in2="hardAlpha" operator="out"/>
<feColorMatrix type="matrix" values="0 0 0 0 0.0833333 0 0 0 0 0.0833333 0 0 0 0 0.0833333 0 0 0 0.9 0"/>
<feBlend mode="normal" in2="BackgroundImageFix" result="effect1_dropShadow_110_727"/>
<feBlend mode="normal" in="SourceGraphic" in2="effect1_dropShadow_110_727" result="shape"/>
</filter>
<filter id="filter13_d_110_727" x="13.75" y="56.7502" width="25.8333" height="25.3572" filterUnits="userSpaceOnUse" color-interpolation-filters="sRGB">
<feFlood flood-opacity="0" result="BackgroundImageFix"/>
<feColorMatrix in="SourceAlpha" type="matrix" values="0 0 0 0 0 0 0 0 0 0 0 0 0 0 0 0 0 0 127 0" result="hardAlpha"/>
<feOffset dy="-2"/>
<feGaussianBlur stdDeviation="3"/>
<feComposite in2="hardAlpha" operator="out"/>
<feColorMatrix type="matrix" values="0 0 0 0 0.0833333 0 0 0 0 0.0833333 0 0 0 0 0.0833333 0 0 0 0.9 0"/>
<feBlend mode="normal" in2="BackgroundImageFix" result="effect1_dropShadow_110_727"/>
<feBlend mode="normal" in="SourceGraphic" in2="effect1_dropShadow_110_727" result="shape"/>
</filter>
</defs>
</svg>
